<svg xmlns="http://www.w3.org/2000/svg" width="85" height="85"><circle cx="42.5" cy="42.5" r="42.5" fill="#FFF"/><path fill="#00338D" d="M37.005 49.934c1.658.517 3.429.754 5.147.754 1.975 0 3.78-.252 5.378-.754H37.005zm11.645-.415c.498-.207.983-.436 1.435-.694H34.374c.464.259.958.491 1.458.694H48.65zm5.318-4.521c.14-.226.278-.473.396-.723h-4.268c-.104.254-.22.499-.352.723h4.224zm-5.051 1.137c.198-.224.384-.455.554-.704h4.23c-.157.245-.324.473-.503.704h-4.281zm-1.333 1.133c.316-.214.62-.459.906-.713h4.353a9.625 9.625 0 0 1-.674.713h-4.585zm-2.542 1.126c.629-.176 1.239-.407 1.811-.705h4.84c-.288.255-.597.485-.919.705h-5.732zm-5.659 0c-.623-.176-1.213-.411-1.771-.705h-4.896c.311.257.628.485.957.705h5.71zm-2.519-1.126a9.4387 9.4387 0 0 1-.921-.713h-4.409c.212.243.438.493.676.713h4.654zm-1.361-1.133a6.6758 6.6758 0 0 1-.589-.704h-4.256c.166.245.333.477.513.704h4.332zm-.863-1.137c-.139-.226-.268-.469-.375-.723h-4.26c.119.25.248.497.385.723h4.25zM30.854 31.93c-.219.238-.434.472-.635.72h4.411c.192-.247.392-.492.604-.72h-4.38zm4.795-.429c.258-.256.525-.491.81-.705h-4.386c-.285.229-.547.461-.805.705h4.381zm1.402-1.128c.397-.261.825-.502 1.262-.71h-4.637c-.371.233-.735.461-1.076.71h4.451zm12.028 1.557c.214.226.417.472.605.72h4.401c-.194-.238-.409-.492-.623-.72h-4.383zm3.953-.429c-.247-.239-.508-.489-.777-.705h-4.396c.28.214.551.454.805.705h4.368zm-1.345-1.128c-.332-.247-.69-.484-1.056-.71h-4.643c.44.211.866.448 1.274.71h4.425zm-9.538-1.14c-.538 0-1.077-.264-1.077-.616v-4.639c0-.258.531-.542 1.069-.542.53 0 1.062.293 1.062.542v4.639c0 .347-.526.609-1.054.616zm-.004-.379c.355 0 .713-.176.713-.414v-4.278c0-.223-.363-.363-.721-.363-.36 0-.724.139-.724.363v4.278c0 .239.366.417.732.414zm-.797-4.958l.801.797v-.271l.739-.74v.542l-.739.738-.801-.795v-.271zm0 .93l.801.801v-.272l.739-.743v.541l-.739.743-.801-.8v-.27zm0 .933l.801.801v-.268l.739-.744v.542l-.739.742-.801-.798v-.275zm0 .934l.801.805v-.268l.739-.743v.533l-.739.742-.801-.798v-.271zm0 .936l.801.8v-.269l.739-.741v.536l-.739.745-.801-.801v-.27zm-2.196-.865c.54.617 1.152 1.036 1.754 1.044.087.016.155.026.206.09l-.011-.531c-.298.076-.89-.015-1.25-.478 1.104-.898.093-3.259-2.305-2.364.065.109.171.298.331.515 1.328-.639 2.669.86 1.275 1.724zm-1.084-1.455c.722-.483 2.166.337.963 1.25-.106-.097-.346-.405-.385-.469.451-.201.301-.66-.215-.309-.095-.097-.304-.362-.363-.472zm-.754-.707c-.637.172-1.259.288-1.513.281-.366-.003-.54.52.159.655.744.15 1.315-.184 1.729-.367-.122-.178-.31-.439-.375-.569zm.529.817c-.368.158-1.095.393-1.357.372-.366-.031-.589.102-.164.36.597.355 1.467.039 1.88-.226-.099-.143-.306-.454-.359-.506zm.551.769c-.45.178-1.094.359-1.345.354-.374-.019-.331.232.057.384.385.159 1.25.026 1.692-.234-.102-.132-.338-.4-.404-.504zm.542.681c-.434.216-1.031.384-1.267.366-.265-.019-.315.215.11.427.445.21 1.174-.123 1.532-.394-.085-.095-.305-.314-.375-.399zm.537.557c-.395.252-.741.372-.971.485-.242.114-.065.662.382.531.372-.124.673-.385 1.02-.699-.083-.065-.338-.233-.431-.317zm.659.444c-.344.334-.678.581-.898.698-.293.135.022.496.482.395.408-.092.604-.684.988-.883-.093-.048-.463-.145-.572-.21zm-4.274-1.785c-.445.09-1.357.08-1.533.005-.385-.146-.464.111-.092.36.805.523 1.874.429 2.324.293-.009-.054-.014-.161-.005-.22-.328-.062-.641-.369-.694-.438zm.881.889c-.493.147-1.5.13-1.731.04-.484-.179-.436.036-.106.3.586.466 1.774.373 2.342.113-.034-.044-.051-.153-.042-.22-.167-.034-.358-.121-.463-.233zm.627.682c-.444.185-1.351.32-1.666.192-.262-.105-.597-.04-.062.386.67.5 2.216.04 2.582-.3-.265.022-.772-.146-.854-.278zm.767.6c-.383.279-1.146.473-1.546.435-.445-.054-.794.123-.071.46.157.082 1.105.431 2.407-.453-.355.057-.643-.04-.79-.442zm-2.923-3.213c-.636.012-1.235-.055-1.48-.132-.451-.131-.586.227-.158.664.377.373 1.816.356 2.278.216-.614-.27-.64-.518-.64-.748zm-2.162.053c-.882-.12-1.355-.22-1.777-.426-.424-.216-.875.072-.146.717.64.559 2.052.544 2.601.539-.329-.2-.635-.496-.678-.83zm.62 1.092c-.828 0-1.572-.08-1.937-.227-.362-.146-.533.042-.076.435.451.395 1.664.691 2.651.555-.011-.042-.011-.124.007-.174-.262-.159-.561-.395-.645-.589zm.741.979c-.857.089-1.473.048-1.926-.132-.453-.188-.412.113-.034.452.366.337 1.142.615 2.646.362.015-.023.034-.094.068-.115-.171-.073-.64-.337-.754-.567zm.719.91c-.534.122-.96.127-1.163.09-.391-.053-.53.092-.098.403.439.318 1.351.417 1.967.157.008-.026 0-.086.008-.109-.22-.109-.58-.351-.714-.541zm9.991-1.313c-.54.617-1.154 1.036-1.757 1.044-.087.016-.158.026-.196.09l.008-.531c.297.076.885-.015 1.251-.478-1.11-.898-.099-3.259 2.296-2.364-.055.109-.169.298-.325.515-1.332-.639-2.678.86-1.277 1.724zm1.083-1.455c-.728-.483-2.169.337-.963 1.25.107-.097.35-.405.383-.469-.448-.201-.296-.66.214-.309.1-.097.307-.362.366-.472zm.752-.707c.633.172 1.254.288 1.512.281.362-.003.54.52-.151.655-.747.15-1.324-.184-1.738-.367.121-.178.304-.439.377-.569zm-.529.817c.375.158 1.101.393 1.354.372.368-.031.585.102.167.36-.588.355-1.462.039-1.882-.226.1-.143.31-.454.361-.506zm-.549.769c.453.178 1.097.359 1.352.354.36-.019.318.232-.062.384-.384.159-1.252.026-1.693-.234.104-.132.332-.4.403-.504zm-.542.681c.44.216 1.031.384 1.261.366.267-.019.322.215-.105.427-.447.21-1.174-.123-1.529-.394.085-.095.309-.314.373-.399zm-.535.557c.395.252.734.372.976.485.241.114.058.662-.395.531-.37-.124-.672-.385-1.014-.699.087-.065.335-.233.433-.317zm-.663.444c.341.334.681.581.908.698.288.135-.026.496-.489.395-.41-.092-.603-.684-.991-.883.101-.048.461-.145.572-.21zm4.273-1.785c.448.09 1.358.08 1.526.005.393-.146.476.111.099.36-.801.523-1.876.429-2.329.293.012-.054.026-.161.007-.22.328-.062.644-.369.697-.438zm-.879.889c.493.147 1.496.13 1.734.04.482-.179.438.036.105.3-.585.466-1.783.373-2.343.113.032-.044.049-.153.042-.22.166-.034.361-.121.462-.233zm-.623.682c.44.185 1.347.32 1.665.192.256-.105.592-.04.059.386-.672.5-2.219.04-2.587-.3.276.022.774-.146.863-.278zm-.775.6c.388.279 1.152.473 1.554.435.445-.054.797.123.067.46-.157.082-1.109.431-2.406-.453.357.057.643-.04.785-.442zm2.933-3.213c.635.012 1.228-.055 1.465-.132.457-.131.591.227.166.664-.376.373-1.815.356-2.275.216.607-.27.644-.518.644-.748zm2.163.053c.874-.12 1.352-.22 1.772-.427.42-.216.872.072.141.717-.635.559-2.046.544-2.595.539.328-.199.632-.495.682-.829zm-.626 1.092c.826 0 1.572-.08 1.935-.227.369-.146.529.042.073.435-.45.395-1.664.691-2.645.555.01-.042.01-.124-.011-.174.26-.159.56-.395.648-.589zm-.746.979c.865.089 1.478.048 1.929-.132.458-.188.41.113.039.452-.375.337-1.145.615-2.645.362-.021-.023-.045-.094-.072-.115.167-.073.64-.337.749-.567zm-.719.91c.542.122.963.127 1.168.09.386-.053.529.092.097.403-.435.318-1.35.417-1.965.157-.008-.026 0-.086-.008-.109.217-.109.577-.351.708-.541zm-21.016 6.149v8.342c0 .308-.402.716-.799.716h-1.533c-.405 0-.727-.118-1.021-.456-.233-.267-5.108-6.428-5.108-6.428v6.168c0 .403-.252.716-.586.716h-.897c-.334 0-.604-.324-.604-.716v-8.342c0-.379.445-.628.64-.628h3.632c.243 0 .428.08.569.258.141.175 3.548 4.448 3.548 4.448v-4.08c0-.301.186-.623.628-.627h.929c.298.001.602.369.602.629zm17.14-.651c.443 0 .755.284.897.643l1.878 4.838s1.752-4.453 1.908-4.85c.155-.402.481-.63.829-.63h3.539c.492 0 .749.534.749 1.027v7.762s3.161-7.731 3.351-8.191c.188-.452.566-.597.861-.597h3.718c.336 0 .656.356.826.8 0 0 2.875 7.011 3.203 7.854.332.835-.257 1.051-.591 1.051h-2.461c-.511 0-.83-.422-.951-.699 0 0-.491-1.14-.635-1.56h-4.57s-.408 1.037-.647 1.59c-.235.555-.502.667-.869.667h-4.479c-.545 0-.887-.439-.887-.835v-5.273s-1.88 4.812-2.129 5.427c-.241.605-.708.683-.998.683h-1.605c-.488 0-.786-.405-.91-.683l-2.17-5.427v5.535c0 .43-.378.574-.693.574h-.784c-.337 0-.607-.288-.607-.64v-8.286c0-.296.188-.779.864-.779.002-.001 2.918-.001 3.363-.001M58.509 39.3h3.172l-1.593-3.896-1.579 3.896zm-23.876-4.474c-.317-.007-.757 0-1.235 0v7.743c0 .341-.279.716-.724.716h-2.621c-.361 0-.781-.413-.781-.716v-8.231c0-.32.345-.761.893-.761h6.706c2.573 0 3.44 1.536 3.404 2.59-.042.936-.732 1.826-2.131 2.447 0 0 1.812 3.414 1.993 3.76.18.365-.081.913-.479.913h-2.919c-.261 0-.628-.337-.811-.66-.175-.309-2.154-4.034-2.154-4.034-.308-.538-.02-.884.521-.812.445.059 1.928-.316 1.918-1.556-.019-.738-.597-1.412-1.58-1.399zM16.926 55.559v4.825h-1.567v-4.825h1.567zm3.599 0l2.297 2.532v-2.532h1.064v4.825h-1.064l-2.518-2.768v2.768h-1.063v-4.825h1.284zm9.147.945c-.404-.146-.802-.248-1.143-.248-.483 0-.815.211-.815.559 0 .271.234.422.763.498l.138.005c1.022.122 1.489.566 1.489 1.362 0 1.005-.842 1.787-2.271 1.787-.488 0-1.186-.104-1.688-.222v-.974c.475.201 1.013.37 1.526.37.532 0 .864-.25.864-.548 0-.276-.217-.464-.782-.534l-.147-.01c-.96-.134-1.521-.664-1.521-1.447 0-1.049.738-1.63 2.374-1.63.535 0 1.214.105 1.214.105v.927h-.001zm4.19 2.003c0 .585.284.816.613.816.498 0 1.042-.473 1.042-1.509v-2.257h1.546v4.824H35.51v-.549c-.588.399-1.136.632-1.728.632-.875 0-1.49-.512-1.49-1.552v-3.356h1.568l.002 2.951zm7.092-.859v-1.291h.321c.436 0 .695.258.695.588 0 .452-.414.703-.839.703h-.177m-1.562-2.089v4.825h1.562v-1.905l1.044 1.905h1.731l-1.278-2.319c.715-.27 1.147-.734 1.147-1.35 0-.64-.517-1.157-1.923-1.157l-2.283.001zm7.683 2.973l.509-1.446.521 1.446h-1.03m.178-2.973l-1.861 4.825h.974l.413-1.061h1.636l.426 1.061h1.674l-1.919-4.825h-1.343zm6.515 0l2.304 2.532v-2.532h1.06v4.825h-1.06l-2.52-2.768v2.768h-1.065v-4.825h1.281zm9.87.908c-.362-.136-.728-.235-1.095-.235-.874 0-1.57.569-1.57 1.649 0 1.183.796 1.823 1.785 1.823.282 0 .597-.078.881-.146v.825c-.27.048-.658.085-1.044.085-2.072 0-3.269-1.033-3.269-2.672 0-1.415 1.05-2.324 3.046-2.324.52 0 .847.057 1.268.125v.869h-.002zm5.901-.908v.821h-2.111v1.116h2.111v.809h-2.111v1.254h2.111v.825h-3.678v-4.825h3.678z"/></svg>